<?xml version="1.0" encoding="UTF-8" standalone="no"?>
<svg
   xmlns:dc="http://purl.org/dc/elements/1.1/"
   xmlns:cc="http://creativecommons.org/ns#"
   xmlns:rdf="http://www.w3.org/1999/02/22-rdf-syntax-ns#"
   xmlns:svg="http://www.w3.org/2000/svg"
   xmlns="http://www.w3.org/2000/svg"
   xmlns:sodipodi="http://sodipodi.sourceforge.net/DTD/sodipodi-0.dtd"
   xmlns:inkscape="http://www.inkscape.org/namespaces/inkscape"
   data-name="Layer 2"
   viewBox="0 0 71.670792 89.5"
   x="0px"
   y="0px"
   version="1.1"
   id="svg22"
   sodipodi:docname="logo.svg"
   inkscape:version="0.92.4 (5da689c313, 2019-01-14)"
   width="71.670792"
   height="89.5"
   inkscape:export-filename="C:\Users\facosta8\giteando\gene_expression_explorer\resources\logo.png"
   inkscape:export-xdpi="107.26257"
   inkscape:export-ydpi="107.26257">
  <metadata
     id="metadata28">
    <rdf:RDF>
      <cc:Work
         rdf:about="">
        <dc:format>image/svg+xml</dc:format>
        <dc:type
           rdf:resource="http://purl.org/dc/dcmitype/StillImage" />
        <dc:title>dna</dc:title>
      </cc:Work>
    </rdf:RDF>
  </metadata>
  <defs
     id="defs26" />
  <sodipodi:namedview
     pagecolor="#ffffff"
     bordercolor="#666666"
     borderopacity="1"
     objecttolerance="10"
     gridtolerance="10"
     guidetolerance="10"
     inkscape:pageopacity="0"
     inkscape:pageshadow="2"
     inkscape:window-width="1489"
     inkscape:window-height="1208"
     id="namedview24"
     showgrid="false"
     inkscape:zoom="5.6568543"
     inkscape:cx="49.111674"
     inkscape:cy="32.741164"
     inkscape:window-x="531"
     inkscape:window-y="25"
     inkscape:window-maximized="0"
     inkscape:current-layer="svg22"
     fit-margin-top="0"
     fit-margin-left="0"
     fit-margin-right="0"
     fit-margin-bottom="0" />
  <title
     id="title2">dna</title>
  <path
     d="m 55.79,1 a 1,1 0 0 0 -1,-1 h -6 a 1,1 0 0 0 -1,1 15,15 0 0 1 -0.16,2.13 H 38.9 a 1,1 0 0 0 0,2 h 8.31 A 18.64,18.64 0 0 1 45.64,8.99 H 38.9 a 1,1 0 0 0 0,2 h 5.55 a 51.67,51.67 0 0 1 -7.24,8.23 51.67,51.67 0 0 1 -7.24,-8.23 h 5.55 a 1,1 0 1 0 0,-2 H 28.77 A 18.64,18.64 0 0 1 27.21,5.13 h 8.32 a 1,1 0 0 0 0,-2 H 26.79 A 15,15 0 0 1 26.63,1 a 1,1 0 0 0 -1,-1 h -6 a 1,1 0 0 0 -1,1 c 0,9.83 6,17.19 12.7,23.65 -6.12,5.59 -12.7,11.93 -12.7,20.1 0,8.17 6.58,14.51 12.7,20.1 -6.69,6.46 -12.7,13.82 -12.7,23.65 a 1,1 0 0 0 1,1 h 6 a 1,1 0 0 0 1,-1 14.79,14.79 0 0 1 0.16,-2.12 h 8.73 a 1,1 0 0 0 0,-2 h -8.31 a 18.49,18.49 0 0 1 1.57,-3.87 h 6.75 a 1,1 0 0 0 0,-2 h -5.56 a 51.67,51.67 0 0 1 7.24,-8.23 51.67,51.67 0 0 1 7.24,8.23 H 38.9 a 1,1 0 1 0 0,2 h 6.75 a 18.49,18.49 0 0 1 1.56,3.87 H 38.9 a 1,1 0 0 0 0,2 h 8.73 a 14.79,14.79 0 0 1 0.16,2.12 1,1 0 0 0 1,1 h 6 a 1,1 0 0 0 1,-1 c 0,-9.83 -6,-17.19 -12.7,-23.65 6.12,-5.59 12.7,-11.93 12.7,-20.1 0,-8.17 -6.58,-14.51 -12.7,-20.1 C 49.78,18.19 55.79,10.83 55.79,1 Z M 20.65,2 h 4 a 19.24,19.24 0 0 0 2.62,8.36 c 0,0 0,0 0,0.06 a 46.13,46.13 0 0 0 8.44,10.17 l -2,1.87 -0.77,0.7 -0.15,0.14 C 26.63,17.36 21.06,10.65 20.65,2 Z m 33.12,85.5 h -4 a 19.24,19.24 0 0 0 -2.62,-8.36 c 0,0 0,0 0,-0.06 A 46.13,46.13 0 0 0 38.71,68.91 l 2,-1.87 0.77,-0.7 0.15,-0.14 c 6.16,5.94 11.73,12.65 12.14,21.3 z m 0,-42.75 c 0,7.08 -5.56,12.71 -12.89,19.4 l -0.78,0.7 -0.77,0.71 -2.83,2.61 c -3.56,3.36 -7,6.94 -9.21,10.9 v 0.07 a 19.24,19.24 0 0 0 -2.62,8.36 h -4 c 0.42,-9 6.39,-15.84 12.83,-22 1.41,-1.34 2.85,-2.66 4,-3.67 l 0.44,-0.4 c 5.8,-5.28 11.85,-10.79 11.85,-16.68 0,-5.62 -5.51,-10.89 -11.09,-16 L 39,28.48 a 3.2,3.2 0 0 1 0.27,-0.25 l 0.91,-0.84 0.09,-0.08 0.85,-0.8 0.24,-0.22 0.28,-0.26 c 6.94,6.37 12.15,11.86 12.15,18.72 z m -18.25,8.38 h -4.68 a 22.29,22.29 0 0 1 -3,-4.25 h 7.72 a 1,1 0 1 0 0,-2 h -8.59 a 7.52,7.52 0 0 1 -0.34,-2.13 7.18,7.18 0 0 1 0.34,-2.13 h 8.55 a 1,1 0 1 0 0,-2 H 27.8 a 21.93,21.93 0 0 1 3,-4.24 h 4.68 a 1,1 0 0 0 0,-2 h -2.77 c 1.41,-1.43 3,-2.86 4.5,-4.27 1.55,1.41 3.09,2.84 4.5,4.27 H 38.9 a 1,1 0 0 0 0,2 h 4.68 a 21.93,21.93 0 0 1 3,4.24 H 38.9 a 1,1 0 1 0 0,2 h 8.55 a 7.52,7.52 0 0 1 0.34,2.13 7.18,7.18 0 0 1 -0.34,2.13 H 38.9 a 1,1 0 1 0 0,2 h 7.72 a 22.29,22.29 0 0 1 -3,4.25 H 38.9 a 1,1 0 0 0 0,2 h 2.81 c -1.41,1.42 -3,2.85 -4.5,4.26 -1.55,-1.41 -3.09,-2.84 -4.5,-4.26 h 2.81 a 1,1 0 0 0 0,-2 z m 5.42,-29.18 c -1.41,1.34 -2.85,2.66 -4,3.67 l -0.44,0.4 c -5.82,5.33 -11.87,10.84 -11.87,16.73 0,5.62 5.51,10.89 11.09,16 l -0.32,0.29 -0.24,0.23 -0.92,0.84 -0.08,0.08 -0.87,0.8 -0.22,0.21 -0.29,0.27 C 25.84,57.1 20.63,51.61 20.63,44.75 c 0,-7.08 5.56,-12.71 12.89,-19.4 l 0.78,-0.7 0.77,-0.71 2.83,-2.61 c 3.56,-3.36 7,-6.94 9.21,-10.9 V 10.36 A 19.24,19.24 0 0 0 49.73,2 h 4 c -0.38,8.96 -6.35,15.84 -12.79,21.95 z"
     id="path4"
     inkscape:connector-curvature="0" />
  <path
     d="m 71.38,13.75 a 1,1 0 0 0 -1.42,0 l -1.5,1.5 -1.5,-1.5 a 1,1 0 0 0 -1.42,0 1,1 0 0 0 0,1.41 l 1.51,1.51 -1.51,1.5 a 1,1 0 0 0 0,1.41 1,1 0 0 0 1.42,0 l 1.5,-1.5 1.5,1.5 a 1,1 0 0 0 1.42,0 1,1 0 0 0 0,-1.41 l -1.51,-1.5 1.51,-1.51 a 1,1 0 0 0 0,-1.41 z"
     id="path6"
     inkscape:connector-curvature="0" />
  <path
     d="m 18.21,29.33 a 1,1 0 0 0 -1.41,0 l -1.5,1.51 -1.51,-1.51 a 1,1 0 0 0 -1.41,0 1,1 0 0 0 0,1.42 l 1.5,1.5 -1.46,1.5 a 1.0005623,1.0005623 0 0 0 1.41,1.42 l 1.51,-1.51 1.5,1.51 a 1,1 0 1 0 1.37,-1.42 l -1.5,-1.5 1.5,-1.5 a 1,1 0 0 0 0,-1.42 z"
     id="path8"
     inkscape:connector-curvature="0" />
  <path
     d="m 62,63.75 a 1,1 0 0 0 -1.41,0 l -1.5,1.5 -1.51,-1.5 a 1,1 0 1 0 -1.37,1.37 l 1.5,1.51 -1.5,1.5 a 1,1 0 0 0 0,1.41 1,1 0 0 0 1.41,0 l 1.51,-1.5 1.5,1.5 a 1,1 0 0 0 1.41,0 1,1 0 0 0 0,-1.41 l -1.5,-1.5 1.5,-1.51 A 1,1 0 0 0 62,63.75 Z"
     id="path10"
     inkscape:connector-curvature="0" />
  <path
     d="m 67.46,34.38 a 3.75,3.75 0 1 0 3.75,3.75 3.75,3.75 0 0 0 -3.75,-3.75 z m 0,5.5 a 1.75,1.75 0 1 1 1.75,-1.75 1.76,1.76 0 0 1 -1.75,1.75 z"
     id="path12"
     inkscape:connector-curvature="0" />
  <path
     d="M 7.5,16.63 A 3.75,3.75 0 1 0 3.75,20.38 3.75,3.75 0 0 0 7.5,16.63 Z M 3.75,18.38 A 1.75,1.75 0 1 1 5.5,16.63 1.76,1.76 0 0 1 3.75,18.38 Z"
     id="path14"
     inkscape:connector-curvature="0" />
  <path
     d="M 6.5,70 A 3.75,3.75 0 1 0 2.75,66.25 3.75,3.75 0 0 0 6.5,70 Z m 0,-5.5 A 1.75,1.75 0 1 1 4.75,66.25 1.75,1.75 0 0 1 6.5,64.5 Z"
     id="path16"
     inkscape:connector-curvature="0" />
  <path
     style="fill:#fff9f9;fill-opacity:1;stroke:#fffdfd;stroke-width:0.17412859px;stroke-linecap:butt;stroke-linejoin:miter;stroke-opacity:1"
     d="m 31.261641,24.597706 6.697588,-6.180844"
     id="path3735"
     inkscape:connector-curvature="0" />
  <path
     style="fill:#fff9f9;fill-opacity:1;stroke:#fffdfd;stroke-width:0.16961554px;stroke-linecap:butt;stroke-linejoin:miter;stroke-opacity:1"
     d="m 36.958977,30.465179 6.490722,-6.051517"
     id="path3735-9"
     inkscape:connector-curvature="0" />
  <path
     style="fill:#fff9f9;fill-opacity:1;stroke:#fffdfd;stroke-width:0.17412859px;stroke-linecap:butt;stroke-linejoin:miter;stroke-opacity:1"
     d="m 30.994653,65.041465 6.697588,-6.180844"
     id="path3735-3"
     inkscape:connector-curvature="0" />
  <path
     style="fill:#fff9f9;fill-opacity:1;stroke:#fffdfd;stroke-width:0.17412859px;stroke-linecap:butt;stroke-linejoin:miter;stroke-opacity:1"
     d="m 36.836978,70.743776 6.697588,-6.180844"
     id="path3735-5"
     inkscape:connector-curvature="0" />
</svg>
